<?xml version="1.0" encoding="UTF-8"?>
<svg width="80px" height="74px" viewBox="0 0 80 74" version="1.1" xmlns="http://www.w3.org/2000/svg" xmlns:xlink="http://www.w3.org/1999/xlink">
    <!-- Generator: Sketch 53.1 (72631) - https://sketchapp.com -->
    <title>api</title>
    <desc>Created with Sketch.</desc>
    <g id="Dashboard" stroke="none" stroke-width="1" fill="none" fill-rule="evenodd">
        <path d="M30.7195092,56.7623224 C30.3385954,56.3679253 30.2655385,55.7655848 30.5409583,55.2902031 C30.8163781,54.8148213 31.3725254,54.583335 31.9001817,54.7244508 C34.3337895,55.4071629 36.8604839,55.690328 39.3833175,55.5630811 C40.1734032,55.5275391 40.94122,55.8324363 41.4952247,56.4017114 L46.6502738,61.5592875 C50.6760227,65.6168636 57.2000106,65.6168636 61.2257594,61.5592875 L61.2257594,61.5592875 C63.159727,59.6103981 64.2463652,56.9660819 64.2463652,54.2086932 C64.2463652,51.4513045 63.159727,48.8069883 61.2257594,46.8580989 L49.976112,35.4862724 C48.0438866,33.5356257 45.4221807,32.439616 42.6883692,32.439616 C39.9545576,32.439616 37.3328518,33.5356257 35.4006264,35.4862724 C35.0829181,35.7794377 34.5958642,35.7794377 34.278156,35.4862724 L29.8049037,30.9660552 C29.5142451,30.6456069 29.5142451,30.1543526 29.8049037,29.8339043 C36.9243823,22.6593669 48.4606706,22.6593669 55.5801492,29.8339043 L66.8630551,41.1973445 C73.9762463,48.3782235 73.9762463,60.014004 66.8630551,67.194883 L66.8630551,67.194883 C59.7435764,74.3694204 48.2072882,74.3694204 41.0878096,67.194883 L30.7195092,56.7623224 Z M50.9988072,45.0214986 L50.9988072,45.0214986 C51.2894658,44.7010503 51.2894658,44.2097959 50.9988072,43.8893477 L46.5172403,39.3691305 C46.1995321,39.0759652 45.7124782,39.0759652 45.3947699,39.3691305 L45.3947699,39.3691305 C43.4625446,41.3197772 40.8408387,42.4157869 38.1070271,42.4157869 C35.3732156,42.4157869 32.7515097,41.3197772 30.8192843,39.3691305 L19.5446931,27.9637588 C17.6107255,26.0148694 16.5240873,23.3705532 16.5240873,20.6131645 C16.5240873,17.8557758 17.6107255,15.2114596 19.5446931,13.2625701 L19.5446931,13.2625701 C23.5704419,9.20499403 30.0944298,9.20499403 34.1201787,13.2625701 L39.2835424,18.4704641 C39.8375471,19.0397392 40.6053639,19.3446363 41.3954496,19.3090944 C43.9182833,19.1818475 46.4449776,19.4650126 48.8785854,20.1477247 C49.4062417,20.2888404 49.962389,20.0573541 50.2378088,19.5819724 C50.5132286,19.1065906 50.4401717,18.5042502 50.0592579,18.1098531 L39.7242159,7.65213359 C32.6047373,0.477596143 21.0684491,0.477596143 13.9489705,7.65213359 L13.9489705,7.65213359 C6.83577917,14.8330126 6.83577917,26.4687931 13.9489705,33.6496721 L25.2152471,44.9963397 C32.3356786,52.1764648 43.8783757,52.1764648 50.9988072,44.9963397 L50.9988072,45.0214986 Z M62.2484546,18.1853298 L63.2129477,19.40973 C63.580524,19.8755978 64.1169181,20.1746278 64.7035656,20.2407228 C65.2902131,20.3068177 65.8788037,20.1345345 66.3392355,19.7619547 L74.1466405,13.480614 C74.6085249,13.1098676 74.9049981,12.5688475 74.9705278,11.9771406 C75.0360576,11.3854337 74.8652476,10.7917669 74.4958536,10.3273642 L73.5313605,9.10296397 C73.1637842,8.63709622 72.6273901,8.33806615 72.0407426,8.27197123 C71.4540951,8.20587631 70.8655045,8.37815944 70.4050727,8.75073925 L62.5976677,15.03208 C61.6777571,15.7989025 61.5235085,17.1620697 62.2484546,18.1182394 L62.2484546,18.1853298 Z M79.9585427,25.9594325 L79.6675318,24.4247391 C79.5586343,23.8407535 79.2240573,23.3243762 78.7374885,22.9893346 C78.2509197,22.654293 77.6522669,22.528067 77.0733781,22.6384566 L67.2621556,24.4247391 C66.6831634,24.5345758 66.1712014,24.8720382 65.8390246,25.3628034 C65.5068478,25.8535685 65.3817011,26.4573842 65.4911468,27.0412655 L65.7738431,28.6178904 C65.8827406,29.201876 66.2173176,29.7182533 66.7038864,30.0532949 C67.1904552,30.3883365 67.789108,30.5145625 68.3679968,30.4041729 L78.1792193,28.5340274 C78.763216,28.426345 79.2801207,28.087222 79.6144629,27.5924143 C79.948805,27.0976067 80.0727257,26.4883439 79.9585427,25.9007283 L79.9585427,25.9594325 Z M61.0760967,0.817296869 L59.6543009,0.188324164 C59.1141264,-0.0504656255 58.501947,-0.062642008 57.9528587,0.154482103 C57.4037704,0.371606215 56.9629088,0.800182968 56.7275634,1.34563394 L52.728243,10.5705669 C52.491495,11.1154001 52.4794227,11.732859 52.6946903,12.2866829 C52.9099579,12.8405067 53.3348701,13.2851704 53.8756572,13.5225455 L55.297453,14.1515182 C55.8376275,14.390308 56.4498068,14.4024844 56.9988952,14.1853603 C57.5479835,13.9682362 57.9888451,13.5396594 58.2241905,12.9942084 L62.2235109,3.76927543 C62.4602589,3.2244423 62.4723311,2.60698332 62.2570636,2.0531595 C62.041796,1.49933568 61.6168838,1.05467197 61.0760967,0.817296869 L61.0760967,0.817296869 Z M18.1478411,56.6784594 C18.0683486,56.3914384 17.9326441,56.1233918 17.7487405,55.8901469 L16.7842475,54.6657467 C16.4166712,54.199879 15.8802771,53.9008489 15.2936296,53.834754 C14.7069821,53.768659 14.1183915,53.9409422 13.6579596,54.313522 L5.85055461,60.5864764 C5.38867029,60.9572228 5.09219709,61.4982429 5.02666731,62.0899498 C4.96113753,62.6816567 5.13194756,63.2753235 5.50134161,63.7397263 L6.46583467,64.9641265 C6.83341096,65.4299942 7.36980502,65.7290243 7.95645254,65.7951192 C8.54310006,65.8612141 9.13169064,65.688931 9.5921225,65.3163512 L17.3995275,59.0350104 C18.095719,58.472476 18.3904655,57.5442754 18.1478411,56.6784594 Z M0.0386524853,48.107658 L0.329663321,49.6423514 C0.438560878,50.226337 0.773137828,50.7427142 1.25970666,51.0777558 C1.74627549,51.4127974 2.34492822,51.5390235 2.92381706,51.4286338 L12.7350395,49.5836472 C13.3140317,49.4738105 13.8259937,49.1363481 14.1581705,48.645583 C14.4903473,48.1548178 14.6154941,47.5510021 14.5060483,46.9671208 L14.2233521,45.3904959 C14.1144545,44.8065103 13.7798776,44.290133 13.2933088,43.9550914 C12.8067399,43.6200498 12.2080872,43.4938238 11.6291984,43.6042134 L1.80966129,45.4911315 C1.23066908,45.6009682 0.718707107,45.9384307 0.386530307,46.4291958 C0.0543535077,46.919961 -0.0707932414,47.5237766 0.0386524853,48.107658 L0.0386524853,48.107658 Z M18.929413,73.1827031 L20.3512088,73.8116758 C20.8913834,74.0504656 21.5035627,74.062642 22.0526511,73.8455179 C22.6017394,73.6283938 23.042601,73.199817 23.2779464,72.6543661 L27.2772667,63.4294331 C27.7637608,62.2946803 27.2463968,60.9769762 26.121538,60.4858408 L24.6997422,59.8568681 C24.1595677,59.6180783 23.5473883,59.6059019 22.9983,59.823026 C22.4492117,60.0401501 22.0083501,60.4687269 21.7730046,61.0141779 L17.7736843,70.2391109 C17.5369363,70.783944 17.524864,71.401403 17.7401316,71.9552268 C17.9553992,72.5090506 18.3803114,72.9537143 18.9210985,73.1910894 L18.929413,73.1827031 Z" id="api" fill="#9AB1BB"></path>
    </g>
</svg>