<?xml version="1.0" encoding="UTF-8"?>
<svg width="32px" height="23px" viewBox="0 0 32 23" version="1.1" xmlns="http://www.w3.org/2000/svg" xmlns:xlink="http://www.w3.org/1999/xlink">
    <!-- Generator: Sketch 53.1 (72631) - https://sketchapp.com -->
    <title>success</title>
    <desc>Created with Sketch.</desc>
    <g id="Dashboard" stroke="none" stroke-width="1" fill="none" fill-rule="evenodd">
        <g id="icon/UI-library/accept" transform="translate(-4.000000, -7.000000)" fill="#4FC610">
            <path d="M34.7159811,11.0175179 C35.1860235,11.4875603 35.1860235,12.2468596 34.7159811,12.716902 L18.4452821,29.0237581 C17.9752397,29.4938005 17.071312,29.8915287 16.3843269,29.8915287 L14.9741997,29.8915287 C14.3233717,29.8915287 13.419444,29.4938005 12.9494016,29.0237581 L5.28409452,21.358451 C4.81405211,20.8884086 4.81405211,20.0929522 5.28409452,19.6229098 L8.28513456,16.6218697 C8.75517697,16.1518273 9.51447626,16.1518273 9.98451867,16.6218697 L14.9018855,21.5030794 C15.3719279,21.9731218 16.1312272,21.9731218 16.6012696,21.5030794 L30.015557,8.05263493 C30.4855994,7.58259252 31.2448987,7.58259252 31.7149411,8.05263493 L34.7159811,11.0175179 Z" id="Icon"></path>
        </g>
    </g>
</svg>