<?xml version="1.0" encoding="UTF-8"?>
<svg width="60px" height="55px" viewBox="0 0 60 55" version="1.1" xmlns="http://www.w3.org/2000/svg" xmlns:xlink="http://www.w3.org/1999/xlink">
    <!-- Generator: Sketch 53.2 (72643) - https://sketchapp.com -->
    <title>!</title>
    <desc>Created with Sketch.</desc>
    <g id="Threshold-Dashboard" stroke="none" stroke-width="1" fill="none" fill-rule="evenodd">
        <g id="ada-dashboard-saved-different-treshold" transform="translate(-891.000000, -203.000000)" fill="#9AB1BB" fill-rule="nonzero">
            <g id="Group-2" transform="translate(739.000000, 203.000000)">
                <g id="Group-4">
                    <g id="Group-3">
                        <path d="M211.375189,50.2613786 C212.833935,52.8956151 211.651255,55 208.734563,55 L155.265086,55 C152.348395,55 151.166514,52.8956151 152.62446,50.2613786 L179.359598,1.97567735 C180.817544,-0.658559118 183.182105,-0.658559118 184.64085,1.97567735 L211.375189,50.2613786 Z M185.448243,36.6738285 L186.401269,14.6453753 L177.599182,14.6453753 L178.406573,36.6738285 L185.448243,36.6738285 Z M176.646156,45.8523506 C176.646156,48.8937789 179.010717,51.3594639 181.927408,51.3594639 C184.844099,51.3594639 187.20866,48.8937789 187.20866,45.8523506 C187.20866,42.8109224 184.844099,40.3452373 181.927408,40.3452373 C179.010717,40.3452373 176.646156,42.8109224 176.646156,45.8523506 Z" id="!"></path>
                    </g>
                </g>
            </g>
        </g>
    </g>
</svg>